<svg width="20" height="20" viewBox="0 0 20 20" fill="none" xmlns="http://www.w3.org/2000/svg">
<g clip-path="url(#clip0_13_4685)">
<rect width="20" height="20" fill="white" fill-opacity="0.01"/>
<path d="M14.7327 3.44369V1.71824C14.7327 1.56869 14.5608 1.4861 14.4448 1.57761L4.38225 9.43699C4.29676 9.50348 4.22758 9.58861 4.17999 9.6859C4.1324 9.78319 4.10767 9.89007 4.10767 9.99837C4.10767 10.1067 4.1324 10.2136 4.17999 10.3108C4.22758 10.4081 4.29676 10.4933 4.38225 10.5598L14.4448 18.4191C14.5631 18.5107 14.7327 18.4281 14.7327 18.2785V16.5531C14.7327 16.4437 14.6814 16.3388 14.5965 16.2718L6.56082 9.99949L14.5965 3.72494C14.6814 3.65797 14.7327 3.55306 14.7327 3.44369Z" fill="#3C83F6"/>
</g>
<defs>
<clipPath id="clip0_13_4685">
<rect width="20" height="20" fill="white"/>
</clipPath>
</defs>
</svg>
