<svg width="20" height="20" viewBox="0 0 20 20" fill="none" xmlns="http://www.w3.org/2000/svg">
<path d="M18.125 3.1445H13.6562C12.6973 3.1445 11.7598 3.41989 10.9531 3.93942L10 4.55075L9.04688 3.93942C8.24104 3.41999 7.30249 3.14399 6.34375 3.1445H1.875C1.5293 3.1445 1.25 3.4238 1.25 3.7695V14.8633C1.25 15.209 1.5293 15.4883 1.875 15.4883H6.34375C7.30273 15.4883 8.24023 15.7636 9.04688 16.2832L9.91406 16.8418C9.93945 16.8574 9.96875 16.8672 9.99805 16.8672C10.0273 16.8672 10.0566 16.8593 10.082 16.8418L10.9492 16.2832C11.7578 15.7636 12.6973 15.4883 13.6562 15.4883H18.125C18.4707 15.4883 18.75 15.209 18.75 14.8633V3.7695C18.75 3.4238 18.4707 3.1445 18.125 3.1445ZM6.34375 14.082H2.65625V4.55075H6.34375C7.03516 4.55075 7.70703 4.74802 8.28711 5.12106L9.24023 5.73239L9.375 5.82028V14.8437C8.44531 14.3437 7.40625 14.082 6.34375 14.082ZM17.3438 14.082H13.6562C12.5938 14.082 11.5547 14.3437 10.625 14.8437V5.82028L10.7598 5.73239L11.7129 5.12106C12.293 4.74802 12.9648 4.55075 13.6562 4.55075H17.3438V14.082ZM7.75195 7.05075H4.12305C4.04688 7.05075 3.98438 7.11716 3.98438 7.19724V8.07614C3.98438 8.15622 4.04688 8.22263 4.12305 8.22263H7.75C7.82617 8.22263 7.88867 8.15622 7.88867 8.07614V7.19724C7.89062 7.11716 7.82812 7.05075 7.75195 7.05075ZM12.1094 7.19724V8.07614C12.1094 8.15622 12.1719 8.22263 12.248 8.22263H15.875C15.9512 8.22263 16.0137 8.15622 16.0137 8.07614V7.19724C16.0137 7.11716 15.9512 7.05075 15.875 7.05075H12.248C12.1719 7.05075 12.1094 7.11716 12.1094 7.19724ZM7.75195 9.78513H4.12305C4.04688 9.78513 3.98438 9.85153 3.98438 9.93161V10.8105C3.98438 10.8906 4.04688 10.957 4.12305 10.957H7.75C7.82617 10.957 7.88867 10.8906 7.88867 10.8105V9.93161C7.89062 9.85153 7.82812 9.78513 7.75195 9.78513ZM15.877 9.78513H12.248C12.1719 9.78513 12.1094 9.85153 12.1094 9.93161V10.8105C12.1094 10.8906 12.1719 10.957 12.248 10.957H15.875C15.9512 10.957 16.0137 10.8906 16.0137 10.8105V9.93161C16.0156 9.85153 15.9531 9.78513 15.877 9.78513Z" fill="#8C8C8C"/>
</svg>
