<svg width="20" height="20" viewBox="0 0 20 20" fill="none" xmlns="http://www.w3.org/2000/svg">
<g clip-path="url(#clip0_300_33)">
<rect width="20" height="20" fill="white" fill-opacity="0.01"/>
<path d="M18.2593 4.64788V1.7885C18.2593 1.39342 17.9401 1.07422 17.545 1.07422H2.45572C2.06063 1.07422 1.74143 1.39342 1.74143 1.7885V4.64788C1.36867 4.6702 1.07179 4.98047 1.07179 5.35993V8.29967C1.07036 8.83994 1.17976 9.37477 1.39322 9.87109C1.4892 10.0988 1.60751 10.3131 1.74143 10.5162V18.2171C1.74143 18.6099 2.06063 18.9314 2.45572 18.9314H17.545C17.9401 18.9314 18.2593 18.6122 18.2593 18.2171V10.5162C18.3953 10.3125 18.5119 10.0966 18.6075 9.87109C18.8196 9.37333 18.9289 8.84431 18.9289 8.29967V5.35993C18.9289 4.98047 18.6321 4.6702 18.2593 4.64788ZM3.34858 2.68136H16.6521V4.64565H3.34858V2.68136ZM11.4289 17.3265H8.57179V15.0028H11.4289V17.3265ZM16.6521 17.3265H12.8575V14.2885C12.8575 13.8934 12.5383 13.5742 12.1432 13.5742H7.85751C7.46242 13.5742 7.14322 13.8934 7.14322 14.2885V17.3265H3.34858V11.9202C3.41331 11.9515 3.48027 11.9827 3.54947 12.0095C4.04724 12.2193 4.57626 12.3242 5.1209 12.3242C5.66554 12.3242 6.19233 12.2193 6.69233 12.0095C7.00036 11.88 7.29054 11.7148 7.55617 11.5162C7.56063 11.514 7.56509 11.514 7.56956 11.5162C7.83601 11.7157 8.12617 11.8814 8.4334 12.0095C8.93117 12.2193 9.46018 12.3242 10.0048 12.3242C10.5495 12.3242 11.0763 12.2193 11.5763 12.0095C11.8843 11.88 12.1745 11.7148 12.4401 11.5162C12.4446 11.514 12.449 11.514 12.4535 11.5162C12.7199 11.7157 13.0101 11.8814 13.3173 12.0095C13.8151 12.2193 14.3441 12.3242 14.8888 12.3242C15.4334 12.3242 15.9602 12.2193 16.4602 12.0095C16.5271 11.9805 16.5941 11.9515 16.6611 11.9202V17.3265H16.6521ZM17.3218 8.29967C17.3218 9.63449 16.228 10.7171 14.8821 10.7171C13.9713 10.7171 13.1767 10.2238 12.7571 9.49163C12.6923 9.38002 12.5763 9.31083 12.4468 9.31083H12.4334C12.3062 9.31083 12.1879 9.38002 12.1231 9.49163C11.909 9.8651 11.5998 10.1752 11.2269 10.3905C10.8541 10.6057 10.4309 10.7184 10.0004 10.7171C9.09188 10.7171 8.29947 10.226 7.87983 9.49609C7.81286 9.38226 7.69233 9.31083 7.56063 9.31083C7.42893 9.31083 7.30617 9.38226 7.24143 9.49609C7.02603 9.86814 6.71642 10.1769 6.34377 10.3912C5.97111 10.6056 5.54857 10.718 5.11867 10.7171C3.77268 10.7171 2.67893 9.63449 2.67893 8.29967V6.26395C2.67893 6.25726 2.6834 6.25279 2.69009 6.25279H17.3106C17.3173 6.25279 17.3218 6.25726 17.3218 6.26395V8.29967Z" fill="currentColor"/>
</g>
<defs>
<clipPath id="clip0_300_33">
<rect width="20" height="20" fill="white"/>
</clipPath>
</defs>
</svg>
