<svg width="20" height="20" viewBox="0 0 20 20" fill="none" xmlns="http://www.w3.org/2000/svg">
<path d="M11.1562 9.99895L17.0155 3.01458C17.1137 2.89851 17.0312 2.72217 16.8794 2.72217H15.0981C14.9932 2.72217 14.8928 2.76904 14.8236 2.8494L9.99097 8.61056L5.15838 2.8494C5.09142 2.76904 4.99097 2.72217 4.88383 2.72217H3.10258C2.95079 2.72217 2.8682 2.89851 2.96642 3.01458L8.82579 9.99895L2.96642 16.9833C2.94442 17.0092 2.9303 17.0408 2.92575 17.0745C2.9212 17.1082 2.9264 17.1424 2.94073 17.1732C2.95507 17.204 2.97794 17.23 3.00663 17.2482C3.03532 17.2664 3.06862 17.2759 3.10258 17.2757H4.88383C4.98874 17.2757 5.08919 17.2289 5.15838 17.1485L9.99097 11.3873L14.8236 17.1485C14.8905 17.2289 14.991 17.2757 15.0981 17.2757H16.8794C17.0312 17.2757 17.1137 17.0994 17.0155 16.9833L11.1562 9.99895Z" fill="#BFBFBF"/>
</svg>
