<svg width="32" height="32" viewBox="0 0 32 32" fill="none" xmlns="http://www.w3.org/2000/svg">
<path d="M24.7075 8.70806L10.4137 23.0006H21C21.2652 23.0006 21.5196 23.1059 21.7071 23.2934C21.8946 23.481 22 23.7353 22 24.0006C22 24.2658 21.8946 24.5201 21.7071 24.7077C21.5196 24.8952 21.2652 25.0006 21 25.0006H8C7.73478 25.0006 7.48043 24.8952 7.29289 24.7077C7.10536 24.5201 7 24.2658 7 24.0006V11.0006C7 10.7353 7.10536 10.481 7.29289 10.2934C7.48043 10.1059 7.73478 10.0006 8 10.0006C8.26522 10.0006 8.51957 10.1059 8.70711 10.2934C8.89464 10.481 9 10.7353 9 11.0006V21.5868L23.2925 7.29306C23.3854 7.20015 23.4957 7.12645 23.6171 7.07616C23.7385 7.02588 23.8686 7 24 7C24.1314 7 24.2615 7.02588 24.3829 7.07616C24.5043 7.12645 24.6146 7.20015 24.7075 7.29306C24.8004 7.38597 24.8741 7.49627 24.9244 7.61766C24.9747 7.73905 25.0006 7.86916 25.0006 8.00056C25.0006 8.13195 24.9747 8.26206 24.9244 8.38345C24.8741 8.50485 24.8004 8.61515 24.7075 8.70806Z" fill="#52C41A"/>
</svg>
