<svg width="20" height="20" viewBox="0 0 20 20" fill="none" xmlns="http://www.w3.org/2000/svg">
<g clip-path="url(#clip0_300_28)">
<rect width="20" height="20" fill="white" fill-opacity="0.01"/>
<path d="M16.9692 14.1975C16.4104 13.6384 15.7576 13.182 15.0406 12.8493C16.0517 12.0301 16.6968 10.7801 16.6968 9.37831C16.6968 6.9051 14.6343 4.87608 12.1611 4.91403C9.72585 4.95198 7.7638 6.93635 7.7638 9.37831C7.7638 10.7801 8.41112 12.0301 9.42005 12.8493C8.70288 13.1817 8.05 13.6381 7.49148 14.1975C6.27273 15.4185 5.58076 17.0301 5.53612 18.7488C5.53552 18.7727 5.5397 18.7964 5.54841 18.8186C5.55712 18.8407 5.57018 18.861 5.58682 18.878C5.60346 18.8951 5.62335 18.9086 5.64531 18.9179C5.66727 18.9271 5.69086 18.9319 5.71469 18.9319H6.96469C7.06067 18.9319 7.14103 18.856 7.14326 18.76C7.18567 17.4654 7.71023 16.2533 8.6321 15.3337C9.10384 14.8594 9.66496 14.4834 10.283 14.2275C10.901 13.9716 11.5636 13.8407 12.2325 13.8426C13.5919 13.8426 14.8709 14.3716 15.833 15.3337C16.7526 16.2533 17.2772 17.4654 17.3218 18.76C17.3241 18.856 17.4044 18.9319 17.5004 18.9319H18.7504C18.7742 18.9319 18.7978 18.9271 18.8198 18.9179C18.8418 18.9086 18.8616 18.8951 18.8783 18.878C18.8949 18.861 18.908 18.8407 18.9167 18.8186C18.9254 18.7964 18.9296 18.7727 18.929 18.7488C18.8843 17.0301 18.1924 15.4185 16.9692 14.1975ZM12.2325 12.2355C11.4692 12.2355 10.7504 11.9386 10.2125 11.3984C9.94249 11.1306 9.72923 10.8111 9.58542 10.459C9.44161 10.107 9.37018 9.72956 9.37541 9.3493C9.3821 8.61715 9.67451 7.90956 10.1857 7.38501C10.7214 6.8359 11.4379 6.5301 12.2035 6.52117C12.9602 6.51448 13.6946 6.80912 14.2348 7.33814C14.7884 7.88055 15.0919 8.60599 15.0919 9.37831C15.0919 10.1417 14.795 10.8582 14.2549 11.3984C13.9899 11.6647 13.6747 11.8758 13.3275 12.0195C12.9804 12.1631 12.6082 12.2366 12.2325 12.2355ZM6.64103 9.9676C6.62094 9.7734 6.60978 9.57698 6.60978 9.37831C6.60978 9.0234 6.64326 8.67742 6.70576 8.34037C6.72139 8.26001 6.67898 8.17742 6.60532 8.14394C6.30174 8.00778 6.02273 7.82028 5.78166 7.58367C5.49759 7.30824 5.27406 6.97662 5.12533 6.60997C4.97659 6.24332 4.90592 5.8497 4.91782 5.45421C4.9379 4.73769 5.22585 4.05689 5.72808 3.54349C6.27942 2.97876 7.02049 2.67072 7.80844 2.67965C8.52049 2.68635 9.20799 2.9609 9.72808 3.44751C9.90442 3.61269 10.0562 3.79572 10.1834 3.99215C10.2281 4.06135 10.3151 4.09037 10.391 4.06358C10.7839 3.92742 11.1991 3.83144 11.6254 3.7868C11.7504 3.7734 11.8218 3.63947 11.766 3.52787C11.0406 2.0926 9.55844 1.10153 7.84416 1.07474C5.36871 1.0368 3.30621 3.06581 3.30621 5.5368C3.30621 6.93858 3.9513 8.18858 4.96246 9.00778C4.25264 9.3359 3.59862 9.78903 3.03165 10.356C1.80844 11.577 1.11648 13.1886 1.07183 14.9096C1.07124 14.9334 1.07542 14.9571 1.08412 14.9793C1.09283 15.0015 1.10589 15.0217 1.12253 15.0387C1.13917 15.0558 1.15906 15.0693 1.18102 15.0786C1.20298 15.0878 1.22657 15.0926 1.2504 15.0926H2.50264C2.59862 15.0926 2.67898 15.0167 2.68121 14.9207C2.72362 13.6261 3.24817 12.414 4.17005 11.4944C4.8263 10.8381 5.62987 10.3828 6.5071 10.1618C6.59416 10.1395 6.65219 10.0569 6.64103 9.9676Z" fill="currentColor"/>
</g>
<defs>
<clipPath id="clip0_300_28">
<rect width="20" height="20" fill="white"/>
</clipPath>
</defs>
</svg>
