<svg width="16" height="16" viewBox="0 0 16 16" fill="currentColor" xmlns="http://www.w3.org/2000/svg">
<g clip-path="url(#clip0_783_3514)">
<rect width="16" height="16" fill="white" fill-opacity="0.01"/>
<g clip-path="url(#clip1_783_3514)">
<path d="M14.571 13.7842C14.8871 13.7842 15.1423 14.0394 15.1423 14.3555V14.998C15.1423 15.0766 15.0783 15.1416 14.9998 15.1416H0.999756C0.921184 15.1416 0.857178 15.0766 0.857178 14.998V14.3555C0.857178 14.0394 1.1124 13.7842 1.42847 13.7842H14.571ZM11.1394 0.855469C11.1874 0.855569 11.2316 0.873516 11.2654 0.907227L14.2332 3.87695C14.2497 3.89346 14.2633 3.91298 14.2722 3.93457C14.2812 3.95617 14.2859 3.97954 14.2859 4.00293C14.2859 4.02625 14.2812 4.04975 14.2722 4.07129C14.2633 4.09275 14.2496 4.11248 14.2332 4.12891L6.66382 11.6982C6.63882 11.725 6.60477 11.7409 6.56909 11.748L3.56616 12.2754C3.53048 12.2807 3.49442 12.2842 3.45874 12.2842C3.29993 12.2842 3.15175 12.2215 3.03394 12.1074C2.96489 12.0391 2.91281 11.9549 2.88354 11.8623C2.85431 11.7696 2.84862 11.6708 2.86597 11.5752L3.39233 8.57129C3.39948 8.53567 3.41543 8.5033 3.44214 8.47656L11.0125 0.907227C11.0464 0.873368 11.0912 0.855469 11.1394 0.855469ZM4.66187 9.16992L4.38354 10.7588L5.97144 10.4785L12.448 4.00391L11.1394 2.69434L4.66187 9.16992Z" fill="currentColor"/>
</g>
</g>
<defs>
<clipPath id="clip0_783_3514">
<rect width="16" height="16" fill="white"/>
</clipPath>
<clipPath id="clip1_783_3514">
<rect width="16" height="16" fill="white"/>
</clipPath>
</defs>
</svg>
