<svg width="21" height="21" viewBox="0 0 21 21" fill="none" xmlns="http://www.w3.org/2000/svg">
<g clip-path="url(#clip0_375_1436)">
<path d="M20.3281 10.4041C20.3281 9.61686 20.2586 9.04239 20.1082 8.44666H10.3281V11.9998H16.0688C15.9531 12.8828 15.3281 14.2126 13.9392 15.1062L13.9197 15.2251L17.012 17.427L17.2263 17.4467C19.1938 15.7764 20.3281 13.319 20.3281 10.4041Z" fill="#4285F4"/>
<path d="M10.5167 20.4467C13.2938 20.4467 15.6252 19.5602 17.3281 18.0311L14.0824 15.5934C13.2138 16.1807 12.0481 16.5906 10.5167 16.5906C7.79673 16.5906 5.48818 14.8511 4.66525 12.4467L4.54462 12.4566L1.36965 14.8389L1.32812 14.9508C3.01953 18.2084 6.49382 20.4467 10.5167 20.4467Z" fill="#34A853"/>
<path d="M4.32812 11.9429C4.13225 11.3225 4.01889 10.6578 4.01889 9.97094C4.01889 9.28403 4.13225 8.61934 4.31782 7.99895L4.31263 7.86682L1.41268 5.44666L1.3178 5.49515C0.688957 6.84676 0.328125 8.36455 0.328125 9.97094C0.328125 11.5773 0.688957 13.0951 1.3178 14.4467L4.32812 11.9429Z" fill="#FBBC05"/>
<path d="M10.4775 4.30259C12.4007 4.30259 13.6979 5.11145 14.4377 5.7874L17.3281 3.03946C15.5529 1.43281 13.2428 0.446655 10.4775 0.446655C6.47179 0.446655 3.01232 2.68487 1.32812 5.94246L4.63964 8.44666C5.47044 6.04222 7.76914 4.30259 10.4775 4.30259Z" fill="#EB4335"/>
</g>
<defs>
<clipPath id="clip0_375_1436">
<rect width="20" height="20" fill="white" transform="translate(0.328125 0.446655)"/>
</clipPath>
</defs>
</svg>
