<svg width="20" height="20" viewBox="0 0 20 20" fill="none" xmlns="http://www.w3.org/2000/svg">
<path d="M15.4422 5.44217L6.50859 14.375H13.125C13.2908 14.375 13.4497 14.4408 13.5669 14.558C13.6842 14.6753 13.75 14.8342 13.75 15C13.75 15.1657 13.6842 15.3247 13.5669 15.4419C13.4497 15.5591 13.2908 15.625 13.125 15.625H5C4.83424 15.625 4.67527 15.5591 4.55806 15.4419C4.44085 15.3247 4.375 15.1657 4.375 15V6.87498C4.375 6.70922 4.44085 6.55025 4.55806 6.43304C4.67527 6.31583 4.83424 6.24998 5 6.24998C5.16576 6.24998 5.32473 6.31583 5.44194 6.43304C5.55915 6.55025 5.625 6.70922 5.625 6.87498V13.4914L14.5578 4.55779C14.6159 4.49972 14.6848 4.45366 14.7607 4.42224C14.8366 4.39081 14.9179 4.37463 15 4.37463C15.0821 4.37463 15.1634 4.39081 15.2393 4.42224C15.3152 4.45366 15.3841 4.49972 15.4422 4.55779C15.5003 4.61586 15.5463 4.6848 15.5777 4.76067C15.6092 4.83654 15.6253 4.91786 15.6253 4.99998C15.6253 5.0821 15.6092 5.16342 15.5777 5.23929C15.5463 5.31516 15.5003 5.3841 15.4422 5.44217Z" fill="#73D13D"/>
</svg>
