<svg width="20" height="20" viewBox="0 0 20 20" fill="none" xmlns="http://www.w3.org/2000/svg">
<g clip-path="url(#clip0_13_4788)">
<rect width="20" height="20" fill="white" fill-opacity="0.01"/>
<path d="M18.1499 3.90227L15.7727 1.52727C15.4825 1.23709 15.0941 1.07414 14.6834 1.07414C14.2727 1.07414 13.8843 1.23486 13.5941 1.52727L11.0338 4.08307C10.7437 4.37325 10.5807 4.76388 10.5807 5.17459C10.5807 5.58754 10.7414 5.9737 11.0338 6.26611L13.0338 8.26834C12.5782 9.32992 11.9236 10.2944 11.1053 11.1099C10.2861 11.9335 9.32847 12.5831 8.26597 13.0429L6.26597 11.0407C5.9758 10.7505 5.5874 10.5875 5.17669 10.5875C4.97411 10.5868 4.77341 10.6265 4.58637 10.7043C4.39932 10.7821 4.22969 10.8965 4.0874 11.0407L1.5249 13.5965C1.23472 13.8866 1.07178 14.2773 1.07178 14.688C1.07178 15.1009 1.23249 15.4871 1.5249 15.7795L3.8999 18.1545C4.39544 18.65 5.07847 18.9335 5.77937 18.9335C5.92446 18.9335 6.06508 18.9224 6.20794 18.8978C9.1633 18.4112 12.0963 16.8375 14.4646 14.4715C16.8307 12.1009 18.4021 9.16789 18.8932 6.2103C19.0338 5.37102 18.7526 4.50718 18.1499 3.90227ZM17.3106 5.94468C16.8753 8.57638 15.4602 11.2014 13.3285 13.3331C11.1968 15.4648 8.57401 16.8799 5.94231 17.3152C5.61196 17.371 5.27267 17.2594 5.0316 17.0206L2.69901 14.688L5.17222 12.2125L7.84633 14.8911L7.86642 14.9112L8.34856 14.7326C9.81046 14.1951 11.138 13.3462 12.2392 12.2446C13.3403 11.1431 14.1888 9.81524 14.7258 8.35316L14.9044 7.87102L12.2079 5.17682L14.6812 2.70137L17.0137 5.03396C17.2548 5.27504 17.3664 5.61432 17.3106 5.94468Z" fill="#3C83F6"/>
</g>
<defs>
<clipPath id="clip0_13_4788">
<rect width="20" height="20" fill="white"/>
</clipPath>
</defs>
</svg>
