<svg width="16" height="16" viewBox="0 0 16 16" fill="none" xmlns="http://www.w3.org/2000/svg">
<g clip-path="url(#clip0_47_141)">
<rect width="16" height="16" fill="white" fill-opacity="0.01"/>
<path d="M7.21362 8.64085C7.29211 8.64085 7.35705 8.70496 7.35718 8.78342V14.7121C7.35718 14.7907 7.29219 14.8547 7.21362 14.8547H1.71362C1.39769 14.8545 1.14233 14.5994 1.14233 14.2834V8.78342C1.14247 8.70511 1.20662 8.64109 1.28491 8.64085H7.21362ZM12.1785 8.64085C12.2568 8.64098 12.3209 8.70505 12.321 8.78342V11.177H13.7136V8.78342C13.7138 8.70496 13.7787 8.64085 13.8572 8.64085H14.7136C14.7921 8.64085 14.857 8.70496 14.8572 8.78342V12.177C14.8569 12.2553 14.792 12.3196 14.7136 12.3196H11.321C11.2426 12.3195 11.1787 12.2553 11.1785 12.177V10.3547H9.78491V14.7121C9.78491 14.7907 9.72091 14.8547 9.64233 14.8547H8.78491C8.70654 14.8545 8.64233 14.7906 8.64233 14.7121V8.78342C8.64247 8.70511 8.70662 8.64109 8.78491 8.64085H12.1785ZM12.1785 13.7121C12.2568 13.7123 12.3208 13.7764 12.321 13.8547V14.7121C12.321 14.7906 12.2569 14.8546 12.1785 14.8547H11.321C11.2425 14.8547 11.1785 14.7907 11.1785 14.7121V13.8547C11.1787 13.7763 11.2426 13.7122 11.321 13.7121H12.1785ZM14.7136 13.7121C14.7921 13.7121 14.857 13.7763 14.8572 13.8547V14.7121C14.8572 14.7907 14.7922 14.8547 14.7136 14.8547H13.8572C13.7786 14.8547 13.7136 14.7907 13.7136 14.7121V13.8547C13.7138 13.7763 13.7787 13.7121 13.8572 13.7121H14.7136ZM2.28491 9.78342V13.7121H6.21362V9.78342H2.28491ZM4.74976 11.1047C4.82828 11.1048 4.89233 11.1697 4.89233 11.2483V12.2483C4.89216 12.3267 4.82817 12.3908 4.74976 12.3908H3.74976C3.67129 12.3908 3.60735 12.3267 3.60718 12.2483V11.2483C3.60718 11.1697 3.67118 11.1047 3.74976 11.1047H4.74976ZM7.21362 1.14085C7.29211 1.14085 7.35705 1.20496 7.35718 1.28342V7.21214C7.35718 7.29071 7.29219 7.35471 7.21362 7.35471H1.28491C1.20654 7.35447 1.14233 7.29056 1.14233 7.21214V1.71214C1.14239 1.39621 1.39773 1.14101 1.71362 1.14085H7.21362ZM14.2849 1.14085C14.6009 1.14085 14.8571 1.39611 14.8572 1.71214V7.21214C14.8572 7.29071 14.7922 7.35471 14.7136 7.35471H8.78491C8.70654 7.35447 8.64233 7.29056 8.64233 7.21214V1.28342C8.64247 1.20511 8.70662 1.14109 8.78491 1.14085H14.2849ZM2.28491 2.28342V6.21214H6.21362V2.28342H2.28491ZM9.78491 2.28342V6.21214H13.7136V2.28342H9.78491ZM4.74976 3.60471C4.82828 3.60477 4.89233 3.66973 4.89233 3.74827V4.74827C4.89216 4.82666 4.82817 4.89078 4.74976 4.89085H3.74976C3.67129 4.89085 3.60735 4.8267 3.60718 4.74827V3.74827C3.60718 3.6697 3.67118 3.60471 3.74976 3.60471H4.74976ZM12.2498 3.60471C12.3283 3.60477 12.3923 3.66973 12.3923 3.74827V4.74827C12.3922 4.82666 12.3282 4.89079 12.2498 4.89085H11.2498C11.1713 4.89085 11.1074 4.8267 11.1072 4.74827V3.74827C11.1072 3.6697 11.1712 3.60471 11.2498 3.60471H12.2498Z" fill="#3C83F6"/>
</g>
<defs>
<clipPath id="clip0_47_141">
<rect width="16" height="16" fill="white"/>
</clipPath>
</defs>
</svg>
