<svg width="20" height="20" viewBox="0 0 20 20" fill="none" xmlns="http://www.w3.org/2000/svg">
<g clip-path="url(#clip0_13_4546)">
<rect width="20" height="20" fill="white" fill-opacity="0.01"/>
<path d="M18.8415 6.45481L13.1741 5.63115L10.6406 0.494986C10.5714 0.354361 10.4576 0.240522 10.317 0.171325C9.96429 -0.00278192 9.53572 0.142307 9.35938 0.494986L6.8259 5.63115L1.15849 6.45481C1.00224 6.47713 0.859382 6.55079 0.750007 6.6624C0.617779 6.7983 0.544915 6.98115 0.547426 7.17075C0.549937 7.36035 0.627618 7.5412 0.7634 7.67356L4.86385 11.6713L3.8951 17.3164C3.87238 17.4477 3.88691 17.5828 3.93704 17.7063C3.98718 17.8297 4.0709 17.9367 4.17873 18.015C4.28656 18.0933 4.41417 18.1399 4.5471 18.1494C4.68003 18.1588 4.81296 18.1309 4.93081 18.0686L10 15.4035L15.0692 18.0686C15.2076 18.1423 15.3683 18.1669 15.5223 18.1401C15.9107 18.0731 16.1719 17.7048 16.1049 17.3164L15.1362 11.6713L19.2366 7.67356C19.3482 7.56418 19.4219 7.42133 19.4442 7.26508C19.5045 6.87445 19.2322 6.51284 18.8415 6.45481ZM13.4107 11.1088L14.2165 15.803L10 13.5887L5.78349 15.8053L6.58929 11.1111L3.17858 7.78517L7.89286 7.0999L10 2.82981L12.1072 7.0999L16.8214 7.78517L13.4107 11.1088Z" fill="#3C83F6"/>
</g>
<defs>
<clipPath id="clip0_13_4546">
<rect width="20" height="20" fill="white"/>
</clipPath>
</defs>
</svg>
