<svg width="16" height="16" viewBox="0 0 16 16" fill="currentColor" xmlns="http://www.w3.org/2000/svg">
<g clip-path="url(#clip0_783_3568)">
<rect width="16" height="16" fill="white" fill-opacity="0.01"/>
<g clip-path="url(#clip1_783_3568)">
<path d="M7.99988 0C12.4177 0 15.9999 3.58214 15.9999 8C15.9998 12.4178 12.4177 16 7.99988 16C3.58213 15.9999 -6.83522e-05 12.4178 -0.00012207 8C-0.00012207 3.5822 3.58209 8.52851e-05 7.99988 0ZM2.84851 3.80664C1.91637 4.9495 1.3573 6.41071 1.3573 8C1.35735 11.6678 4.33213 14.6425 7.99988 14.6426C9.58916 14.6426 11.0504 14.0835 12.1932 13.1514L2.84851 3.80664ZM7.99988 1.35742C6.41085 1.35746 4.95025 1.91575 3.8075 2.84766L13.1522 12.1924C14.0841 11.0496 14.6424 9.58905 14.6425 8C14.6425 4.33214 11.6677 1.35742 7.99988 1.35742Z" fill="currentColor"/>
</g>
</g>
<defs>
<clipPath id="clip0_783_3568">
<rect width="16" height="16" fill="white"/>
</clipPath>
<clipPath id="clip1_783_3568">
<rect width="16" height="16" fill="white"/>
</clipPath>
</defs>
</svg>
