<svg width="24" height="24" viewBox="0 0 24 24" fill="none" xmlns="http://www.w3.org/2000/svg">
<path d="M4 5C4 5.26522 4.10536 5.51957 4.29289 5.70711C4.48043 5.89464 4.73478 6 5 6H21C21.2652 6 21.5196 6.10536 21.7071 6.29289C21.8946 6.48043 22 6.73478 22 7V21C22 21.2652 21.8946 21.5196 21.7071 21.7071C21.5196 21.8946 21.2652 22 21 22H16C15.7348 22 15.4804 21.8946 15.2929 21.7071C15.1054 21.5196 15 21.2652 15 21C15 20.7348 15.1054 20.4804 15.2929 20.2929C15.4804 20.1054 15.7348 20 16 20H20V8H5C4.65856 7.99669 4.32026 7.93444 4 7.816V19C4 19.2652 4.10536 19.5196 4.29289 19.7071C4.48043 19.8946 4.73478 20 5 20H10C10.2652 20 10.5196 19.8946 10.7071 19.7071C10.8946 19.5196 11 19.2652 11 19V14.414L9.707 15.707C9.5184 15.8892 9.2658 15.99 9.0036 15.9877C8.7414 15.9854 8.49059 15.8802 8.30518 15.6948C8.11977 15.5094 8.0146 15.2586 8.01233 14.9964C8.01005 14.7342 8.11084 14.4816 8.293 14.293L11.293 11.293C11.3861 11.1997 11.497 11.1259 11.619 11.076C11.8636 10.9749 12.1384 10.9749 12.383 11.076C12.505 11.1259 12.6159 11.1997 12.709 11.293L15.709 14.293C15.8912 14.4816 15.992 14.7342 15.9897 14.9964C15.9874 15.2586 15.8822 15.5094 15.6968 15.6948C15.5114 15.8802 15.2606 15.9854 14.9984 15.9877C14.7362 15.99 14.4836 15.8892 14.295 15.707L13 14.414V19C13 19.7956 12.6839 20.5587 12.1213 21.1213C11.5587 21.6839 10.7956 22 10 22H5C4.20435 22 3.44129 21.6839 2.87868 21.1213C2.31607 20.5587 2 19.7956 2 19V5C2 4.20435 2.31607 3.44129 2.87868 2.87868C3.44129 2.31607 4.20435 2 5 2H21C21.2652 2 21.5196 2.10536 21.7071 2.29289C21.8946 2.48043 22 2.73478 22 3C22 3.26522 21.8946 3.51957 21.7071 3.70711C21.5196 3.89464 21.2652 4 21 4H5C4.73478 4 4.48043 4.10536 4.29289 4.29289C4.10536 4.48043 4 4.73478 4 5Z" fill="currentColor"/>
</svg>
