<svg width="80" height="80" viewBox="0 0 80 80" fill="none" xmlns="http://www.w3.org/2000/svg">
<path d="M74.6638 66.875L42.1638 10.625C41.6795 9.78906 40.8435 9.375 39.9998 9.375C39.156 9.375 38.3123 9.78906 37.8357 10.625L5.33572 66.875C4.37478 68.5469 5.57791 70.625 7.49978 70.625H72.4998C74.4217 70.625 75.6248 68.5469 74.6638 66.875ZM37.4998 32.5C37.4998 32.1562 37.781 31.875 38.1248 31.875H41.8748C42.2185 31.875 42.4998 32.1562 42.4998 32.5V46.875C42.4998 47.2188 42.2185 47.5 41.8748 47.5H38.1248C37.781 47.5 37.4998 47.2188 37.4998 46.875V32.5ZM39.9998 60C39.0185 59.98 38.0841 59.5761 37.3972 58.875C36.7103 58.1739 36.3255 57.2315 36.3255 56.25C36.3255 55.2685 36.7103 54.3261 37.3972 53.625C38.0841 52.9239 39.0185 52.52 39.9998 52.5C40.9811 52.52 41.9154 52.9239 42.6024 53.625C43.2893 54.3261 43.674 55.2685 43.674 56.25C43.674 57.2315 43.2893 58.1739 42.6024 58.875C41.9154 59.5761 40.9811 59.98 39.9998 60Z" fill="#FFC53D"/>
</svg>
