<svg width="14" height="14" viewBox="0 0 14 14" fill="none" xmlns="http://www.w3.org/2000/svg">
<path d="M2.33317 2.9165C2.33317 3.07121 2.39463 3.21959 2.50403 3.32898C2.61342 3.43838 2.76179 3.49984 2.9165 3.49984H12.2498C12.4045 3.49984 12.5529 3.5613 12.6623 3.67069C12.7717 3.78009 12.8332 3.92846 12.8332 4.08317V12.2498C12.8332 12.4045 12.7717 12.5529 12.6623 12.6623C12.5529 12.7717 12.4045 12.8332 12.2498 12.8332H9.33317C9.17846 12.8332 9.03009 12.7717 8.92069 12.6623C8.8113 12.5529 8.74984 12.4045 8.74984 12.2498C8.74984 12.0951 8.8113 11.9468 8.92069 11.8374C9.03009 11.728 9.17846 11.6665 9.33317 11.6665H11.6665V4.6665H2.9165C2.71733 4.66457 2.51999 4.62826 2.33317 4.55917V11.0832C2.33317 11.2379 2.39463 11.3863 2.50403 11.4957C2.61342 11.605 2.76179 11.6665 2.9165 11.6665H5.83317C5.98788 11.6665 6.13625 11.605 6.24565 11.4957C6.35505 11.3863 6.4165 11.2379 6.4165 11.0832V8.408L5.66225 9.16225C5.55224 9.26851 5.40489 9.32731 5.25194 9.32598C5.09899 9.32465 4.95268 9.2633 4.84453 9.15515C4.73637 9.04699 4.67502 8.90069 4.67369 8.74774C4.67237 8.59479 4.73116 8.44744 4.83742 8.33742L6.58742 6.58742C6.64175 6.53299 6.7064 6.48995 6.77759 6.46084C6.92029 6.40185 7.08055 6.40185 7.22325 6.46084C7.29444 6.48995 7.35909 6.53299 7.41342 6.58742L9.16342 8.33742C9.26968 8.44744 9.32848 8.59479 9.32715 8.74774C9.32582 8.90069 9.26447 9.04699 9.15632 9.15515C9.04816 9.2633 8.90185 9.32465 8.74891 9.32598C8.59596 9.32731 8.44861 9.26851 8.33859 9.16225L7.58317 8.408V11.0832C7.58317 11.5473 7.3988 11.9924 7.07061 12.3206C6.74242 12.6488 6.2973 12.8332 5.83317 12.8332H2.9165C2.45238 12.8332 2.00726 12.6488 1.67907 12.3206C1.35088 11.9924 1.1665 11.5473 1.1665 11.0832V2.9165C1.1665 2.45238 1.35088 2.00726 1.67907 1.67907C2.00726 1.35088 2.45238 1.1665 2.9165 1.1665H12.2498C12.4045 1.1665 12.5529 1.22796 12.6623 1.33736C12.7717 1.44675 12.8332 1.59513 12.8332 1.74984C12.8332 1.90455 12.7717 2.05292 12.6623 2.16232C12.5529 2.27171 12.4045 2.33317 12.2498 2.33317H2.9165C2.76179 2.33317 2.61342 2.39463 2.50403 2.50403C2.39463 2.61342 2.33317 2.76179 2.33317 2.9165Z" fill="currentColor"/>
</svg>
