<svg width="20" height="20" viewBox="0 0 20 20" fill="none" xmlns="http://www.w3.org/2000/svg">
<g clip-path="url(#clip0_13_4780)">
<rect width="20" height="20" fill="white" fill-opacity="0.01"/>
<path d="M19.2857 2.13879H0.714286C0.319196 2.13879 0 2.45799 0 2.85308V17.1388C0 17.5339 0.319196 17.8531 0.714286 17.8531H19.2857C19.6808 17.8531 20 17.5339 20 17.1388V2.85308C20 2.45799 19.6808 2.13879 19.2857 2.13879ZM18.3929 4.61201V16.2459H1.60714V4.61201L0.991071 4.1321L1.8683 3.00487L2.82366 3.74817H17.1786L18.1339 3.00487L19.0112 4.1321L18.3929 4.61201ZM17.1786 3.74594L10 9.32629L2.82143 3.74594L1.86607 3.00263L0.988839 4.12987L1.60491 4.60978L9.22991 10.5383C9.44919 10.7087 9.71897 10.8012 9.99665 10.8012C10.2743 10.8012 10.5441 10.7087 10.7634 10.5383L18.3929 4.61201L19.0089 4.1321L18.1317 3.00487L17.1786 3.74594Z" fill="#3C83F6"/>
</g>
<defs>
<clipPath id="clip0_13_4780">
<rect width="20" height="20" fill="white"/>
</clipPath>
</defs>
</svg>
