<svg width="14" height="14" viewBox="0 0 14 14" fill="none" xmlns="http://www.w3.org/2000/svg">
<g clip-path="url(#clip0_696_4011)">
<rect width="14" height="14" fill="white" fill-opacity="0.01"/>
<g clip-path="url(#clip1_696_4011)">
<path d="M9.62109 0.950195C10.17 0.94894 10.7137 1.05703 11.2207 1.26758C11.7096 1.46987 12.1553 1.7644 12.5332 2.13477C12.9108 2.50412 13.2134 2.94377 13.4229 3.42871C13.6399 3.93326 13.7505 4.46911 13.749 5.02051C13.749 5.54082 13.6426 6.0832 13.4316 6.63477C13.2566 7.09569 13.0021 7.57384 12.6787 8.05664C12.1662 8.8207 11.4619 9.61797 10.5869 10.4258C9.13627 11.764 7.70228 12.6864 7.63965 12.7266L7.26953 12.9648C7.10554 13.0694 6.89447 13.0694 6.73047 12.9648L6.36035 12.7266C6.29908 12.6888 4.86288 11.7646 3.41309 10.4258C2.53811 9.61799 1.83379 8.82068 1.32129 8.05664C0.997871 7.57386 0.74492 7.09568 0.568359 6.63477C0.357422 6.0832 0.250977 5.54082 0.250977 5.02051C0.251013 4.46904 0.361952 3.93331 0.579102 3.42871C0.787968 2.94347 1.08966 2.5037 1.46777 2.13477C1.84744 1.76291 2.28968 1.4707 2.78027 1.26758C3.28809 1.05664 3.82617 0.950195 4.38086 0.950195C5.15101 0.950278 5.90267 1.16121 6.55566 1.55957C6.71189 1.65487 6.86037 1.75998 7.00098 1.87402C7.14157 1.75999 7.29007 1.65486 7.44629 1.55957C8.09934 1.16125 8.8509 0.950195 9.62109 0.950195ZM9.62109 2.1377C8.47891 2.1377 7.48848 2.77578 7.00098 3.70703C6.51354 2.7759 5.52286 2.13786 4.38086 2.1377C2.75595 2.1377 1.43863 3.42844 1.43848 5.02051C1.43848 8.16426 7.00098 11.7285 7.00098 11.7285C7.04079 11.703 12.5635 8.15293 12.5635 5.02051C12.5633 3.42846 11.246 2.13773 9.62109 2.1377Z" fill="currentColor"/>
</g>
</g>
<defs>
<clipPath id="clip0_696_4011">
<rect width="14" height="14" fill="white"/>
</clipPath>
<clipPath id="clip1_696_4011">
<rect width="14" height="14" fill="white"/>
</clipPath>
</defs>
</svg>
