<svg width="24" height="24" viewBox="0 0 24 24" fill="none" xmlns="http://www.w3.org/2000/svg">
<path d="M21.6328 6.64672C21.3187 5.91931 20.8657 5.26014 20.2992 4.7061C19.7323 4.15041 19.064 3.70881 18.3305 3.40532C17.5699 3.08936 16.7541 2.92764 15.9305 2.92954C14.775 2.92954 13.6477 3.24594 12.668 3.8436C12.4336 3.98657 12.2109 4.1436 12 4.31469C11.7891 4.1436 11.5664 3.98657 11.332 3.8436C10.3523 3.24594 9.225 2.92954 8.06953 2.92954C7.2375 2.92954 6.43125 3.08891 5.66953 3.40532C4.93359 3.71001 4.27031 4.14829 3.70078 4.7061C3.13359 5.25951 2.6805 5.91884 2.36719 6.64672C2.04141 7.40376 1.875 8.20766 1.875 9.03501C1.875 9.81547 2.03438 10.6288 2.35078 11.4561C2.61563 12.1475 2.99531 12.8647 3.48047 13.5889C4.24922 14.735 5.30625 15.9303 6.61875 17.142C8.79375 19.1506 10.9477 20.5381 11.0391 20.5944L11.5945 20.9506C11.8406 21.1077 12.157 21.1077 12.4031 20.9506L12.9586 20.5944C13.05 20.5358 15.2016 19.1506 17.3789 17.142C18.6914 15.9303 19.7484 14.735 20.5172 13.5889C21.0023 12.8647 21.3844 12.1475 21.6469 11.4561C21.9633 10.6288 22.1227 9.81547 22.1227 9.03501C22.125 8.20766 21.9586 7.40376 21.6328 6.64672Z" fill="#3C83F6"/>
</svg>
