<svg width="20" height="20" viewBox="0 0 20 20" fill="none" xmlns="http://www.w3.org/2000/svg">
<g clip-path="url(#clip0_13_4794)">
<rect width="20" height="20" fill="white" fill-opacity="0.01"/>
<path d="M17.6477 5.0259C17.2274 4.05689 16.6215 3.17952 15.8642 2.44331C15.1043 1.70046 14.2086 1.11085 13.2258 0.706706C12.2035 0.282599 11.1187 0.0683136 10.0003 0.0683136C8.88205 0.0683136 7.79722 0.282599 6.7749 0.704474C5.78606 1.11296 4.8999 1.69778 4.13651 2.44108C3.37964 3.1777 2.77382 4.05496 2.35303 5.02367C1.91776 6.02813 1.69678 7.0951 1.69678 8.19331C1.69678 9.76921 2.07401 11.3384 2.81508 12.8518C3.41106 14.0683 4.24365 15.2536 5.29276 16.3808C7.08517 18.3049 8.96463 19.4813 9.49812 19.796C9.64955 19.8854 9.82225 19.9325 9.99812 19.9322C10.1722 19.9322 10.3441 19.8875 10.4981 19.796C11.0316 19.4813 12.9111 18.3049 14.7035 16.3808C15.7526 15.2558 16.5852 14.0683 17.1812 12.8518C17.9267 11.3406 18.3039 9.77367 18.3039 8.19555C18.3039 7.09733 18.0829 6.03037 17.6477 5.0259ZM10.0003 18.2201C8.52937 17.2848 3.30392 13.5817 3.30392 8.19555C3.30392 6.45671 3.99812 4.82278 5.25928 3.59063C6.5249 2.35626 8.20794 1.67546 10.0003 1.67546C11.7928 1.67546 13.4758 2.35626 14.7414 3.59287C16.0026 4.82278 16.6968 6.45671 16.6968 8.19555C16.6968 13.5817 11.4713 17.2848 10.0003 18.2201ZM10.0003 4.44331C7.83071 4.44331 6.07178 6.20224 6.07178 8.37188C6.07178 10.5415 7.83071 12.3005 10.0003 12.3005C12.17 12.3005 13.9289 10.5415 13.9289 8.37188C13.9289 6.20224 12.17 4.44331 10.0003 4.44331ZM11.7682 10.1397C11.5363 10.3723 11.2608 10.5567 10.9574 10.6823C10.654 10.808 10.3287 10.8724 10.0003 10.8719C9.33294 10.8719 8.70571 10.6107 8.23249 10.1397C7.99995 9.90787 7.81556 9.63231 7.68991 9.32891C7.56426 9.02552 7.49984 8.70027 7.50035 8.37188C7.50035 7.70447 7.76151 7.07724 8.23249 6.60403C8.70571 6.13081 9.33294 5.87188 10.0003 5.87188C10.6678 5.87188 11.295 6.13081 11.7682 6.60403C12.2414 7.07724 12.5003 7.70447 12.5003 8.37188C12.5003 9.0393 12.2414 9.66653 11.7682 10.1397Z" fill="#3C83F6"/>
</g>
<defs>
<clipPath id="clip0_13_4794">
<rect width="20" height="20" fill="white"/>
</clipPath>
</defs>
</svg>
