<svg width="32" height="32" viewBox="0 0 32 32" fill="none" xmlns="http://www.w3.org/2000/svg">
<g clip-path="url(#clip0_371_5529)">
<rect width="32" height="32" fill="white" fill-opacity="0.01"/>
<path d="M29.2149 7.43649V2.86149C29.2149 2.22934 28.7042 1.71863 28.072 1.71863H3.92915C3.29701 1.71863 2.78629 2.22934 2.78629 2.86149V7.43649C2.18987 7.4722 1.71487 7.96863 1.71487 8.57577V13.2793C1.71258 14.1438 1.88761 14.9995 2.22915 15.7936C2.38272 16.1579 2.57201 16.5008 2.78629 16.8258V29.1472C2.78629 29.7758 3.29701 30.2901 3.92915 30.2901H28.072C28.7042 30.2901 29.2149 29.7793 29.2149 29.1472V16.8258C29.4325 16.5 29.6191 16.1544 29.772 15.7936C30.1113 14.9972 30.2863 14.1508 30.2863 13.2793V8.57577C30.2863 7.96863 29.8113 7.4722 29.2149 7.43649ZM5.35772 4.29006H26.6434V7.43291H5.35772V4.29006ZM18.2863 27.7222H13.7149V24.0043H18.2863V27.7222ZM26.6434 27.7222H20.572V22.8615C20.572 22.2293 20.0613 21.7186 19.4292 21.7186H12.572C11.9399 21.7186 11.4292 22.2293 11.4292 22.8615V27.7222H5.35772V19.0722C5.46129 19.1222 5.56844 19.1722 5.67915 19.2151C6.47558 19.5508 7.32201 19.7186 8.19344 19.7186C9.06487 19.7186 9.90772 19.5508 10.7077 19.2151C11.2006 19.0079 11.6649 18.7436 12.0899 18.4258C12.097 18.4222 12.1042 18.4222 12.1113 18.4258C12.5376 18.745 13.0019 19.0101 13.4934 19.2151C14.2899 19.5508 15.1363 19.7186 16.0077 19.7186C16.8792 19.7186 17.722 19.5508 18.522 19.2151C19.0149 19.0079 19.4792 18.7436 19.9042 18.4258C19.9113 18.4222 19.9184 18.4222 19.9256 18.4258C20.3519 18.745 20.8162 19.0101 21.3077 19.2151C22.1042 19.5508 22.9506 19.7186 23.822 19.7186C24.6934 19.7186 25.5363 19.5508 26.3363 19.2151C26.4434 19.1686 26.5506 19.1222 26.6577 19.0722V27.7222H26.6434ZM27.7149 13.2793C27.7149 15.4151 25.9649 17.1472 23.8113 17.1472C22.3542 17.1472 21.0827 16.3579 20.4113 15.1865C20.3077 15.0079 20.122 14.8972 19.9149 14.8972H19.8934C19.6899 14.8972 19.5006 15.0079 19.397 15.1865C19.0544 15.784 18.5596 16.2802 17.9631 16.6246C17.3665 16.969 16.6894 17.1493 16.0006 17.1472C14.547 17.1472 13.2792 16.3615 12.6077 15.1936C12.5006 15.0115 12.3077 14.8972 12.097 14.8972C11.8863 14.8972 11.6899 15.0115 11.5863 15.1936C11.2417 15.7889 10.7463 16.2829 10.15 16.6258C9.55378 16.9688 8.87771 17.1486 8.18987 17.1472C6.03629 17.1472 4.28629 15.4151 4.28629 13.2793V10.0222C4.28629 10.0115 4.29344 10.0043 4.30415 10.0043H27.697C27.7077 10.0043 27.7149 10.0115 27.7149 10.0222V13.2793Z" fill="#3C83F6"/>
</g>
<defs>
<clipPath id="clip0_371_5529">
<rect width="32" height="32" fill="white"/>
</clipPath>
</defs>
</svg>
