<svg width="16" height="16" viewBox="0 0 16 16" fill="none" xmlns="http://www.w3.org/2000/svg">
<g clip-path="url(#clip0_783_2870)">
<rect width="16" height="16" fill="white" fill-opacity="0.01"/>
<path d="M8.53601 1.57227C8.63092 1.5724 8.67853 1.61986 8.67859 1.71484V7.32227H13.9999C14.0951 7.32227 14.1434 7.36973 14.1434 7.46484V8.53613C14.1434 8.63137 14.0951 8.67969 13.9999 8.67969H8.67859V14.2861C8.67859 14.3812 8.63098 14.4296 8.53601 14.4297H7.46375C7.3688 14.4295 7.32117 14.3812 7.32117 14.2861V8.67969H1.99988C1.90493 8.67954 1.8573 8.63123 1.8573 8.53613V7.46484C1.85736 7.36987 1.90499 7.32241 1.99988 7.32227H7.32117V1.71484C7.32123 1.61987 7.36886 1.57241 7.46375 1.57227H8.53601Z" fill="currentColor"/>
</g>
<defs>
<clipPath id="clip0_783_2870">
<rect width="16" height="16" fill="white"/>
</clipPath>
</defs>
</svg>
