<svg width="17" height="16" viewBox="0 0 17 16" fill="none" xmlns="http://www.w3.org/2000/svg">
<g clip-path="url(#clip0_47_333)">
<rect width="16" height="16" transform="translate(0.5)" fill="white" fill-opacity="0.01"/>
<path d="M7.71362 8.64085C7.79211 8.64085 7.85705 8.70497 7.85718 8.78343V14.7121C7.85718 14.7907 7.79219 14.8547 7.71362 14.8547H2.21362C1.89769 14.8546 1.64233 14.5994 1.64233 14.2834V8.78343C1.64247 8.70512 1.70662 8.6411 1.78491 8.64085H7.71362ZM12.6785 8.64085C12.7568 8.64099 12.8209 8.70505 12.821 8.78343V11.177H14.2136V8.78343C14.2138 8.70497 14.2787 8.64085 14.3572 8.64085H15.2136C15.2921 8.64085 15.357 8.70497 15.3572 8.78343V12.177C15.3569 12.2554 15.292 12.3196 15.2136 12.3196H11.821C11.7426 12.3195 11.6787 12.2553 11.6785 12.177V10.3547H10.2849V14.7121C10.2849 14.7907 10.2209 14.8547 10.1423 14.8547H9.28491C9.20654 14.8545 9.14233 14.7906 9.14233 14.7121V8.78343C9.14247 8.70512 9.20662 8.6411 9.28491 8.64085H12.6785ZM12.6785 13.7121C12.7568 13.7123 12.8208 13.7764 12.821 13.8547V14.7121C12.821 14.7906 12.7569 14.8546 12.6785 14.8547H11.821C11.7425 14.8547 11.6785 14.7907 11.6785 14.7121V13.8547C11.6787 13.7763 11.7426 13.7122 11.821 13.7121H12.6785ZM15.2136 13.7121C15.2921 13.7121 15.357 13.7763 15.3572 13.8547V14.7121C15.3572 14.7907 15.2922 14.8547 15.2136 14.8547H14.3572C14.2786 14.8547 14.2136 14.7907 14.2136 14.7121V13.8547C14.2138 13.7763 14.2787 13.7121 14.3572 13.7121H15.2136ZM2.78491 9.78343V13.7121H6.71362V9.78343H2.78491ZM5.24976 11.1047C5.32828 11.1048 5.39233 11.1697 5.39233 11.2483V12.2483C5.39216 12.3267 5.32817 12.3908 5.24976 12.3909H4.24976C4.17129 12.3909 4.10735 12.3267 4.10718 12.2483V11.2483C4.10718 11.1697 4.17118 11.1047 4.24976 11.1047H5.24976ZM7.71362 1.14085C7.79211 1.14085 7.85705 1.20497 7.85718 1.28343V7.21214C7.85718 7.29071 7.79219 7.35472 7.71362 7.35472H1.78491C1.70654 7.35448 1.64233 7.29057 1.64233 7.21214V1.71214C1.64239 1.39622 1.89773 1.14102 2.21362 1.14085H7.71362ZM14.7849 1.14085C15.1009 1.14085 15.3571 1.39612 15.3572 1.71214V7.21214C15.3572 7.29071 15.2922 7.35472 15.2136 7.35472H9.28491C9.20654 7.35448 9.14233 7.29057 9.14233 7.21214V1.28343C9.14247 1.20512 9.20662 1.1411 9.28491 1.14085H14.7849ZM2.78491 2.28343V6.21214H6.71362V2.28343H2.78491ZM10.2849 2.28343V6.21214H14.2136V2.28343H10.2849ZM5.24976 3.60472C5.32828 3.60478 5.39233 3.66974 5.39233 3.74828V4.74828C5.39216 4.82667 5.32817 4.89079 5.24976 4.89085H4.24976C4.17129 4.89085 4.10735 4.8267 4.10718 4.74828V3.74828C4.10718 3.6697 4.17118 3.60472 4.24976 3.60472H5.24976ZM12.7498 3.60472C12.8283 3.60478 12.8923 3.66974 12.8923 3.74828V4.74828C12.8922 4.82667 12.8282 4.89079 12.7498 4.89085H11.7498C11.6713 4.89085 11.6074 4.8267 11.6072 4.74828V3.74828C11.6072 3.6697 11.6712 3.60472 11.7498 3.60472H12.7498Z" fill="white"/>
</g>
<defs>
<clipPath id="clip0_47_333">
<rect width="16" height="16" fill="white" transform="translate(0.5)"/>
</clipPath>
</defs>
</svg>
