<svg width="16" height="16" viewBox="0 0 16 16" fill="currentColor" xmlns="http://www.w3.org/2000/svg">
<g clip-path="url(#clip0_783_3628)">
<rect width="16" height="16" fill="white" fill-opacity="0.01"/>
<path d="M8.01074 1.07031C11.9553 1.07567 15.1433 4.26647 15.1436 8.21094C15.1436 10.4967 14.0679 12.5327 12.3965 13.8398L13.0625 14.6953C13.1375 14.7882 13.0698 14.9258 12.9502 14.9258L9.96875 14.9111C9.87768 14.9111 9.80963 14.8237 9.83105 14.7344L10.5381 11.8379C10.5445 11.8119 10.558 11.7882 10.5771 11.7695C10.5964 11.7508 10.6212 11.738 10.6475 11.7324C10.6736 11.7269 10.7005 11.7291 10.7256 11.7383C10.7508 11.7475 10.7736 11.7629 10.79 11.7842L11.5166 12.7148C11.6987 12.572 11.874 12.417 12.04 12.251C12.5621 11.7307 12.9778 11.1135 13.2646 10.4346C13.5629 9.731 13.7129 8.98237 13.7129 8.21094C13.7128 7.43969 13.5628 6.6917 13.2646 5.98828C12.9772 5.30796 12.565 4.69686 12.04 4.17188C11.5151 3.64689 10.904 3.23476 10.2236 2.94727C9.52006 2.64905 8.77143 2.49902 8 2.49902C7.22872 2.49908 6.48062 2.64911 5.77539 2.94727C5.09508 3.23476 4.48396 3.6469 3.95898 4.17188C3.43403 4.69685 3.02186 5.30797 2.73438 5.98828C2.43625 6.69169 2.28618 7.4397 2.28613 8.21094C2.28613 8.98235 2.43634 9.73085 2.73633 10.4326C3.02318 11.1116 3.43883 11.7287 3.96094 12.249C4.09478 12.3829 4.23436 12.5092 4.37891 12.627C4.43776 12.6769 4.44839 12.7645 4.40039 12.8252L3.69727 13.7275C3.64729 13.79 3.55566 13.8009 3.49316 13.751C1.88424 12.442 0.857422 10.4467 0.857422 8.21094C0.857634 4.26304 4.06106 1.06517 8.01074 1.07031Z" fill="currentColor"/>
</g>
<defs>
<clipPath id="clip0_783_3628">
<rect width="16" height="16" fill="white"/>
</clipPath>
</defs>
</svg>
