<svg width="20" height="20" viewBox="0 0 20 20" fill="none" xmlns="http://www.w3.org/2000/svg">
<path d="M17.8808 2.04595C17.7839 1.96233 17.6661 1.90672 17.54 1.88511C17.4139 1.86349 17.2843 1.8767 17.1652 1.92329L1.33234 8.11939C1.10795 8.20664 0.917982 8.36443 0.79103 8.56899C0.664077 8.77355 0.607013 9.01382 0.628428 9.25362C0.649844 9.49342 0.74858 9.71977 0.909771 9.8986C1.07096 10.0774 1.28589 10.1991 1.52218 10.2452L5.62453 11.0506V15.6249C5.62372 15.874 5.69776 16.1177 5.83706 16.3242C5.97636 16.5308 6.17449 16.6908 6.40578 16.7835C6.63671 16.8778 6.89067 16.9004 7.13464 16.8484C7.37861 16.7964 7.60129 16.6723 7.77374 16.492L9.75187 14.4405L12.8902 17.1874C13.1166 17.3882 13.4086 17.4993 13.7112 17.4999C13.8439 17.4998 13.9757 17.4789 14.1019 17.4381C14.3081 17.3727 14.4935 17.2544 14.6398 17.095C14.7861 16.9356 14.888 16.7406 14.9355 16.5295L18.1066 2.73423C18.1349 2.60982 18.1289 2.48003 18.0891 2.35878C18.0493 2.23753 17.9773 2.12939 17.8808 2.04595ZM13.1042 4.85845L6.10499 9.87095L2.22999 9.11079L13.1042 4.85845ZM6.87453 15.6249V11.9155L8.81124 13.6139L6.87453 15.6249ZM13.7128 16.2499L7.25343 10.5858L16.5503 3.92251L13.7128 16.2499Z" fill="#3C83F6"/>
</svg>
