<svg width="20" height="20" viewBox="0 0 20 20" fill="none" xmlns="http://www.w3.org/2000/svg">
<g clip-path="url(#clip0_300_846)">
<rect width="20" height="20" fill="white" fill-opacity="0.01"/>
<path d="M18.2141 1.07413H1.78557C1.39049 1.07413 1.07129 1.39332 1.07129 1.78841V18.217C1.07129 18.6121 1.39049 18.9313 1.78557 18.9313H18.2141C18.6092 18.9313 18.9284 18.6121 18.9284 18.217V1.78841C18.9284 1.39332 18.6092 1.07413 18.2141 1.07413ZM17.3213 11.4313H10.357V8.57413H17.3213V11.4313ZM17.3213 17.3241H2.67843V2.68127H17.3213V7.14556H9.64272C9.24763 7.14556 8.92843 7.46475 8.92843 7.85984V12.1456C8.92843 12.5406 9.24763 12.8598 9.64272 12.8598H17.3213V17.3241ZM11.5177 10.0027C11.5177 10.2395 11.6118 10.4666 11.7792 10.634C11.9467 10.8015 12.1738 10.8956 12.4106 10.8956C12.6474 10.8956 12.8745 10.8015 13.0419 10.634C13.2094 10.4666 13.3034 10.2395 13.3034 10.0027C13.3034 9.7659 13.2094 9.5388 13.0419 9.37135C12.8745 9.20391 12.6474 9.10984 12.4106 9.10984C12.1738 9.10984 11.9467 9.20391 11.7792 9.37135C11.6118 9.5388 11.5177 9.7659 11.5177 10.0027Z" fill="currentColor"/>
</g>
<defs>
<clipPath id="clip0_300_846">
<rect width="20" height="20" fill="white"/>
</clipPath>
</defs>
</svg>
